<svg
   version="1.1"
   id="svg1"
   width="1477.24"
   height="272.28"
   viewBox="0 0 1477.24 272.28"
   sodipodi:docname="buildingSMART_CMYK_Ro_extracted.eps"
   xmlns:inkscape="http://www.inkscape.org/namespaces/inkscape"
   xmlns:sodipodi="http://sodipodi.sourceforge.net/DTD/sodipodi-0.dtd"
   xmlns="http://www.w3.org/2000/svg"
   xmlns:svg="http://www.w3.org/2000/svg">
  <defs
     id="defs1" />
  
  <g
     id="g1"
     inkscape:groupmode="layer"
     inkscape:label="1">
    <g
       id="group-R5">
      <path
         id="path2"
         d="m 444.418,820.73 c 72.793,-78.492 195.434,-83.109 273.926,-10.332 L 975.395,1048.75 813.867,1222.95 414.699,852.781 444.418,820.73"
         style="fill:#2556ac;fill-opacity:1;fill-rule:nonzero;stroke:#2759ad;stroke-width:2.5;stroke-linecap:butt;stroke-linejoin:miter;stroke-miterlimit:3.864;stroke-dasharray:none;stroke-opacity:1"
         transform="matrix(0.13333333,0,0,-0.13333333,0,272.28)" />
      <path
         id="path3"
         d="m 52.957,1242.88 162.078,-174.78 174.188,161.51 -132.36,142.74 439.086,407.17 493.541,-532.22 33.27,30.84 c 78.48,72.79 83.1,195.43 10.33,273.93 l -391.473,422.14 c -72.797,78.5 -195.426,83.13 -273.926,10.33 L 63.2891,1516.81 C -15.207,1444.02 -19.8359,1321.37 52.957,1242.88"
         style="fill:#2556ac;fill-opacity:1;fill-rule:nonzero;stroke:#2759ad;stroke-width:2.5;stroke-linecap:butt;stroke-linejoin:miter;stroke-miterlimit:3.864;stroke-dasharray:none;stroke-opacity:1"
         transform="matrix(0.13333333,0,0,-0.13333333,0,272.28)" />
      <path
         id="path4"
         d="m 1221.36,498.441 c 78.49,72.778 83.11,195.418 10.34,273.911 L 993.336,1029.4 819.16,867.891 l 370.15,-399.172 32.05,29.722"
         style="fill:#962999;fill-opacity:1;fill-rule:nonzero;stroke:none"
         transform="matrix(0.13333333,0,0,-0.13333333,0,272.28)" />
      <path
         id="path5"
         d="m 1221.36,498.441 c 78.49,72.778 83.11,195.418 10.34,273.911 L 993.336,1029.4 819.16,867.891 1189.31,468.719 Z"
         style="fill:none;stroke:#982c9b;stroke-width:2.5;stroke-linecap:butt;stroke-linejoin:miter;stroke-miterlimit:3.864;stroke-dasharray:none;stroke-opacity:1"
         transform="matrix(0.13333333,0,0,-0.13333333,0,272.28)" />
      <path
         id="path6"
         d="M 799.207,106.969 974,269.059 812.477,443.23 669.738,310.879 262.57,749.969 794.797,1243.5 l -30.852,33.26 c -72.793,78.51 -195.422,83.13 -273.925,10.33 L 67.8711,895.621 c -78.5,-72.781 -83.125,-195.422 -10.332,-273.922 L 525.281,117.301 C 598.078,38.8008 720.715,34.1797 799.207,106.969"
         style="fill:#962999;fill-opacity:1;fill-rule:nonzero;stroke:#982c9b;stroke-width:2.5;stroke-linecap:butt;stroke-linejoin:miter;stroke-miterlimit:3.864;stroke-dasharray:none;stroke-opacity:1"
         transform="matrix(0.13333333,0,0,-0.13333333,0,272.28)" />
      <path
         id="path7"
         d="m 1543.66,1275.37 c -72.8,78.5 -195.43,83.13 -273.92,10.33 l -257.05,-238.35 161.52,-174.178 399.17,370.148 -29.72,32.05"
         style="fill:#3da4b0;fill-opacity:1;fill-rule:nonzero;stroke:none"
         transform="matrix(0.13333333,0,0,-0.13333333,0,272.28)" />
      <path
         id="path8"
         d="m 1543.66,1275.37 c -72.8,78.5 -195.43,83.13 -273.92,10.33 l -257.05,-238.35 161.52,-174.178 399.17,370.148 z"
         style="fill:none;stroke:#3ea9b1;stroke-width:2.5;stroke-linecap:butt;stroke-linejoin:miter;stroke-miterlimit:3.864;stroke-dasharray:none;stroke-opacity:1"
         transform="matrix(0.13333333,0,0,-0.13333333,0,272.28)" />
      <path
         id="path9"
         d="M 1935.13,853.23 1773.05,1028.01 1598.87,866.488 1731.22,723.762 1292.12,316.59 798.59,848.809 765.328,817.961 C 686.84,745.172 682.211,622.531 754.996,544.039 L 1146.48,121.891 c 72.76,-78.5121 195.42,-83.1293 273.89,-10.332 l 504.43,467.742 c 78.5,72.777 83.13,195.418 10.33,273.929"
         style="fill:#3da4b0;fill-opacity:1;fill-rule:nonzero;stroke:none"
         transform="matrix(0.13333333,0,0,-0.13333333,0,272.28)" />
      <path
         id="path10"
         d="M 1935.13,853.23 1773.05,1028.01 1598.87,866.488 1731.22,723.762 1292.12,316.59 798.59,848.809 765.328,817.961 C 686.84,745.172 682.211,622.531 754.996,544.039 L 1146.48,121.891 c 72.76,-78.5121 195.42,-83.1293 273.89,-10.332 l 504.43,467.742 c 78.5,72.777 83.13,195.418 10.33,273.929 z"
         style="fill:none;stroke:#3ea9b1;stroke-width:2.5;stroke-linecap:butt;stroke-linejoin:miter;stroke-miterlimit:3.864;stroke-dasharray:none;stroke-opacity:1"
         transform="matrix(0.13333333,0,0,-0.13333333,0,272.28)" />
      <path
         id="path11"
         d="m 766.723,1597.67 c -78.496,-72.79 -83.121,-195.42 -10.328,-273.92 l 238.351,-257.04 174.184,161.52 -370.16,399.16 -32.047,-29.72"
         style="fill:#ec124e;fill-opacity:1;fill-rule:nonzero;stroke:none"
         transform="matrix(0.13333333,0,0,-0.13333333,0,272.28)" />
      <path
         id="path12"
         d="m 766.723,1597.67 c -78.496,-72.79 -83.121,-195.42 -10.328,-273.92 l 238.351,-257.04 174.184,161.52 -370.16,399.16 z"
         style="fill:none;stroke:#ed1a53;stroke-width:2.5;stroke-linecap:butt;stroke-linejoin:miter;stroke-miterlimit:3.864;stroke-dasharray:none;stroke-opacity:1"
         transform="matrix(0.13333333,0,0,-0.13333333,0,272.28)" />
      <path
         id="path13"
         d="m 1188.87,1989.13 -174.79,-162.08 161.52,-174.18 142.74,132.36 407.15,-439.08 -532.22,-493.548 30.86,-33.262 c 72.8,-78.488 195.43,-83.11 273.93,-10.34 l 422.16,391.47 c 78.49,72.8 83.12,195.43 10.32,273.93 l -467.76,504.39 c -72.76,78.51 -195.42,83.14 -273.91,10.34"
         style="fill:#ec124e;fill-opacity:1;fill-rule:nonzero;stroke:none"
         transform="matrix(0.13333333,0,0,-0.13333333,0,272.28)" />
      <path
         id="path14"
         d="m 1188.87,1989.13 -174.79,-162.08 161.52,-174.18 142.74,132.36 407.15,-439.08 -532.22,-493.548 30.86,-33.262 c 72.8,-78.488 195.43,-83.11 273.93,-10.34 l 422.16,391.47 c 78.49,72.8 83.12,195.43 10.32,273.93 l -467.76,504.39 c -72.76,78.51 -195.42,83.14 -273.91,10.34 z"
         style="fill:none;stroke:#ed1a53;stroke-width:2.5;stroke-linecap:butt;stroke-linejoin:miter;stroke-miterlimit:3.864;stroke-dasharray:none;stroke-opacity:1"
         transform="matrix(0.13333333,0,0,-0.13333333,0,272.28)" />
      <path
         id="path15"
         d="m 2211.9,1946.35 v -694.47 c 0,-164.99 118.49,-316.489 289.49,-316.489 143.99,0 286.49,133.499 286.49,316.489 0,182.99 -142.5,316.48 -286.49,316.48 -94.5,0 -160.5,-38.99 -221.99,-103.49 v 67.5 c 43.49,35.99 112.49,90 221.99,90 193.49,0 346.48,-156 346.48,-370.49 0,-214.49 -152.99,-370.489 -346.48,-370.489 -193.5,0 -346.49,155.999 -346.49,370.489 v 694.47 h 57"
         style="fill:currentColor;fill-opacity:1;fill-rule:nonzero;stroke:none"
         transform="matrix(0.13333333,0,0,-0.13333333,0,272.28)" />
      <path
         id="path16"
         d="m 3008.4,1607.37 v -425.99 c 0,-148.49 103.49,-245.989 227.98,-245.989 124.51,0 228,97.499 228,245.989 v 425.99 h 56.99 v -433.49 c 0,-175.489 -125.99,-292.489 -284.99,-292.489 -158.98,0 -284.98,117 -284.98,292.489 v 433.49 h 57"
         style="fill:currentColor;fill-opacity:1;fill-rule:nonzero;stroke:none"
         transform="matrix(0.13333333,0,0,-0.13333333,0,272.28)" />
      <path
         id="path17"
         d="m 3689.23,896.391 v 710.979 h 56.99 V 896.391 Z m 28.49,956.969 c 25.5,0 45,-19.51 45,-45 0,-25.5 -19.5,-45 -45,-45 -25.5,0 -45,19.5 -45,45 0,25.49 19.5,45 45,45"
         style="fill:currentColor;fill-opacity:1;fill-rule:nonzero;stroke:none"
         transform="matrix(0.13333333,0,0,-0.13333333,0,272.28)" />
      <path
         id="path18"
         d="M 3933.68,896.391 V 1946.35 h 56.99 V 896.391 h -56.99"
         style="fill:currentColor;fill-opacity:1;fill-rule:nonzero;stroke:none"
         transform="matrix(0.13333333,0,0,-0.13333333,0,272.28)" />
      <path
         id="path19"
         d="m 4804.93,1946.35 v -694.47 c 0,-214.49 -152.99,-370.489 -346.49,-370.489 -193.48,0 -346.48,155.999 -346.48,370.489 0,214.49 153,370.49 346.48,370.49 109.51,0 178.5,-54.01 222,-90 v -67.5 c -61.5,64.5 -127.49,103.49 -222,103.49 -143.99,0 -286.48,-133.49 -286.48,-316.48 0,-182.99 142.49,-316.489 286.48,-316.489 171,0 289.5,151.499 289.5,316.489 v 694.47 h 56.99"
         style="fill:currentColor;fill-opacity:1;fill-rule:nonzero;stroke:none"
         transform="matrix(0.13333333,0,0,-0.13333333,0,272.28)" />
      <path
         id="path20"
         d="m 4968.79,896.391 v 710.979 h 56.99 V 896.391 Z m 28.49,956.969 c 25.5,0 45,-19.51 45,-45 0,-25.5 -19.5,-45 -45,-45 -25.5,0 -45,19.5 -45,45 0,25.49 19.5,45 45,45"
         style="fill:currentColor;fill-opacity:1;fill-rule:nonzero;stroke:none"
         transform="matrix(0.13333333,0,0,-0.13333333,0,272.28)" />
      <path
         id="path21"
         d="m 5700.81,896.391 v 425.989 c 0,148.5 -103.5,245.98 -228,245.98 -124.49,0 -227.99,-97.48 -227.99,-245.98 V 896.391 h -56.99 v 433.489 c 0,175.49 126,292.49 284.98,292.49 158.99,0 284.99,-117 284.99,-292.49 V 896.391 h -56.99"
         style="fill:currentColor;fill-opacity:1;fill-rule:nonzero;stroke:none"
         transform="matrix(0.13333333,0,0,-0.13333333,0,272.28)" />
      <path
         id="path22"
         d="m 6031.89,667.078 c 54,-21 119.99,-36 179.99,-36 191.99,0 307.49,87 307.49,335.992 v 284.81 c 0,164.99 -118.49,316.48 -289.49,316.48 -143.99,0 -286.49,-133.49 -286.49,-316.48 0,-182.99 142.5,-316.489 286.49,-316.489 94.5,0 160.5,39 221.99,103.499 v -67.499 c -43.49,-36 -112.49,-90 -221.99,-90 -193.49,0 -346.49,155.999 -346.49,370.489 0,214.49 153,370.49 346.49,370.49 193.5,0 346.48,-156 346.48,-370.49 V 928.07 c 0,-221.992 -149.99,-350.98 -356.98,-350.98 -70.5,0 -139.49,12 -205.49,36 l 18,53.988"
         style="fill:currentColor;fill-opacity:1;fill-rule:nonzero;stroke:none"
         transform="matrix(0.13333333,0,0,-0.13333333,0,272.28)" />
      <path
         id="path23"
         d="m 7139.73,1491.86 c -148.57,42.1 -276.88,78.45 -276.88,213 0,112.37 61.85,160.32 206.81,160.32 h 372.16 v 105.34 h -396.16 c -183.29,0 -297.15,-99.49 -297.15,-259.66 0,-227.49 187.44,-279.38 352.82,-325.18 147.15,-40.75 286.15,-79.24 286.15,-232.8 0,-113.06 -87.31,-175.321 -245.82,-175.321 h -393.15 v -105.34 h 402.15 c 223.17,0 351.16,105.582 351.16,289.671 0,227.39 -192.36,281.89 -362.09,329.97"
         style="fill:#ec124e;fill-opacity:1;fill-rule:nonzero;stroke:none"
         transform="matrix(0.13333333,0,0,-0.13333333,0,272.28)" />
      <path
         id="path24"
         d="m 8502.13,1988.53 c -71.18,0 -89.9,-21.44 -125.19,-143.33 l -248.29,-841.01 -248.26,840.89 c -35.34,122 -54.06,143.45 -125.24,143.45 -83.52,0 -95.05,-80.66 -101.94,-128.92 L 7518.99,872.219 h 111.8 l 133.27,985.041 c 0.29,-1.03 0.58,-2.08 0.89,-3.19 l 251.97,-860.871 c 28.45,-98.808 41.84,-132.98 111.73,-132.98 69.89,0 83.28,34.16 111.69,132.89 l 252.14,861.481 c 0.25,0.92 0.5,1.8 0.74,2.66 L 8626.5,872.219 h 111.81 l -134.25,987.561 c -6.89,48.15 -18.41,128.75 -101.93,128.75"
         style="fill:#ec124e;fill-opacity:1;fill-rule:nonzero;stroke:none"
         transform="matrix(0.13333333,0,0,-0.13333333,0,272.28)" />
      <path
         id="path25"
         d="m 10371,1970.52 v -102.34 h 298.5 V 872.219 h 111.3 v 995.961 h 298.5 v 102.34 H 10371"
         style="fill:#ec124e;fill-opacity:1;fill-rule:nonzero;stroke:none"
         transform="matrix(0.13333333,0,0,-0.13333333,0,272.28)" />
      <path
         id="path26"
         d="m 10943.1,992.629 h 20.7 c 19.7,0 33.7,1.383 33.7,19.281 0,12.41 -8.6,18.44 -26.2,18.44 h -28.2 z m 78.8,-69.559 h -20.1 l -33.7,55.309 h -25 V 923.07 h -14.8 v 121.53 h 46.3 c 26.1,0 38.8,-10.78 38.8,-32.97 0,-23.22 -14.1,-29.95 -27.5,-32.65 z m -54,149.81 c -23,0 -44.4,-9.27 -60.2,-26.12 -15.5,-16.55 -24.1,-38.5 -24.1,-61.811 0,-23.308 8.6,-45.258 24.1,-61.808 15.8,-16.84 37.2,-26.121 60.2,-26.121 46.8,0 84.9,39.449 84.9,87.929 0,48.481 -38.1,87.931 -84.9,87.931 z m 0,-190.661 c -55.5,0 -100.7,46.09 -100.7,102.73 0,56.651 45.2,102.731 100.7,102.731 55.9,0 101.4,-46.08 101.4,-102.731 0,-56.64 -45.5,-102.73 -101.4,-102.73"
         style="fill:currentColor;fill-opacity:1;fill-rule:nonzero;stroke:none"
         transform="matrix(0.13333333,0,0,-0.13333333,0,272.28)" />
      <path
         id="path27"
         d="m 10217.9,1432.35 c 86.9,50.83 130.9,137.84 130.9,259.01 0,174.97 -141.9,297.17 -345.2,297.17 -204.18,0 -336.12,-139.02 -336.12,-354.17 V 872.219 h 111.33 v 474.101 138.34 152.71 c 0,153.92 84.04,245.81 224.79,245.81 135.9,0 230.9,-81.35 230.9,-197.81 0,-135.26 -90.7,-212.83 -248.87,-212.83 H 9830.5 V 1370.2 h 200.1 c 145,0 224.8,-62.79 224.8,-176.82 V 872.219 h 114.4 v 312.171 c 0,119.28 -55,208.4 -151.9,247.96"
         style="fill:#ec124e;fill-opacity:1;fill-rule:nonzero;stroke:none"
         transform="matrix(0.13333333,0,0,-0.13333333,0,272.28)" />
      <path
         id="path28"
         d="m 9174.14,1988.53 c -237.87,0 -385.65,-147.78 -385.65,-385.66 V 872.219 h 111.33 v 750.151 c 0,160.87 105.11,260.81 274.32,260.81 169.21,0 274.31,-99.94 274.31,-260.81 V 1487.54 H 8953.34 V 1385.2 h 495.11 V 872.219 h 111.35 v 730.651 c 0,237.88 -147.77,385.66 -385.66,385.66"
         style="fill:#ec124e;fill-opacity:1;fill-rule:nonzero;stroke:none"
         transform="matrix(0.13333333,0,0,-0.13333333,0,272.28)" />
      <path
         id="path29"
         d="m 2279.6,239.852 h 57.85 c 60.45,0 98.81,33.148 98.81,83.199 0,56.558 -40.96,81.258 -100.76,81.91 -27.3,0 -46.8,-2.602 -55.9,-5.199 z m -56.56,199.558 c 28.61,5.852 69.56,9.102 108.56,9.102 60.45,0 99.45,-11.051 126.76,-35.75 22.1,-19.5 34.44,-49.403 34.44,-83.203 0,-57.86 -36.4,-96.2 -82.55,-111.809 v -1.941 c 33.8,-11.707 53.96,-42.911 64.36,-88.411 14.3,-61.1089 24.7,-103.3472 33.8,-120.25737 H 2449.9 C 2442.76,19.5 2433,57.1914 2420.65,111.801 c -13,60.449 -36.4,83.211 -87.75,85.148 h -53.3 V 7.14063 h -56.56 V 439.41"
         style="fill:#3da4b0;fill-opacity:1;fill-rule:nonzero;stroke:none"
         transform="matrix(0.13333333,0,0,-0.13333333,0,272.28)" />
      <path
         id="path30"
         d="m 2608.49,163.801 c 0,-68.9026 39.65,-120.9026 95.55,-120.9026 54.61,0 95.56,51.3399 95.56,122.2036 0,53.296 -26.65,120.898 -94.25,120.898 -67.61,0 -96.86,-62.398 -96.86,-122.199 z m 249.61,3.25 C 2858.1,50.6992 2777.5,0 2701.45,0 c -85.16,0 -150.81,62.3984 -150.81,161.852 0,105.296 68.9,167.046 156.01,167.046 90.35,0 151.45,-65.636 151.45,-161.847"
         style="fill:#3da4b0;fill-opacity:1;fill-rule:nonzero;stroke:none"
         transform="matrix(0.13333333,0,0,-0.13333333,0,272.28)" />
      <path
         id="path31"
         d="m 2930.24,236.609 c 0,32.5 -0.65,59.153 -2.6,85.141 h 50.05 l 2.6,-50.699 h 1.95 c 17.55,29.898 46.8,57.847 98.8,57.847 42.9,0 75.41,-25.988 89.05,-63.039 h 1.3 c 9.75,17.539 22.11,31.2 35.11,40.942 18.85,14.308 39.65,22.097 69.55,22.097 41.6,0 103.35,-27.289 103.35,-136.5 V 7.14063 h -55.9 V 185.25 c 0,60.449 -22.1,96.859 -68.25,96.859 -32.5,0 -57.85,-24.058 -67.6,-52.007 -2.6,-7.801 -4.55,-18.204 -4.55,-28.602 V 7.14063 h -55.91 V 195.648 c 0,50.051 -22.1,86.461 -65.65,86.461 -35.75,0 -61.75,-28.609 -70.85,-57.211 -3.25,-8.449 -4.55,-18.199 -4.55,-27.949 V 7.14063 h -55.9 V 236.609"
         style="fill:#3da4b0;fill-opacity:1;fill-rule:nonzero;stroke:none"
         transform="matrix(0.13333333,0,0,-0.13333333,0,272.28)" />
      <path
         id="path32"
         d="m 3638.09,167.699 c -62.4,1.301 -133.25,-9.75 -133.25,-70.8474 0,-37.0508 24.7,-54.6133 53.95,-54.6133 40.95,0 66.95,26.0117 76.05,52.6601 1.95,5.8516 3.25,12.3516 3.25,18.2036 z m 8.45,-160.55837 -4.55,39.64847 h -1.95 C 3622.49,22.1016 3588.69,0 3543.84,0 c -63.7,0 -96.21,44.8516 -96.21,90.3516 0,76.0464 67.61,117.6484 189.16,117.0004 v 6.5 c 0,26 -7.15,72.808 -71.5,72.808 -29.25,0 -59.8,-9.109 -81.9,-23.398 l -13,37.687 c 26,16.91 63.7,27.949 103.35,27.949 96.2,0 119.61,-65.636 119.61,-128.699 V 82.5391 c 0,-27.2891 1.3,-53.9375 5.2,-75.39847 h -52.01"
         style="fill:#3da4b0;fill-opacity:1;fill-rule:nonzero;stroke:none"
         transform="matrix(0.13333333,0,0,-0.13333333,0,272.28)" />
      <path
         id="path33"
         d="m 3785.63,236.609 c 0,32.5 -0.65,59.153 -2.6,85.141 h 50.7 l 3.25,-52 h 1.3 c 15.6,29.898 52.01,59.148 104.01,59.148 43.55,0 111.15,-25.988 111.15,-133.886 V 7.14063 h -57.2 V 188.5 c 0,50.699 -18.85,92.949 -72.8,92.949 -37.71,0 -66.95,-26.648 -76.7,-58.5 -2.61,-7.14 -3.91,-16.898 -3.91,-26.648 V 7.14063 h -57.2 V 236.609"
         style="fill:#3da4b0;fill-opacity:1;fill-rule:nonzero;stroke:none"
         transform="matrix(0.13333333,0,0,-0.13333333,0,272.28)" />
      <path
         id="path34"
         d="M 4146.38,7.14063 V 321.75 h 57.2 V 7.14063 Z m 63.7,403.01937 c 0.65,-19.5 -13.65,-35.109 -36.4,-35.109 -20.15,0 -34.45,15.609 -34.45,35.109 0,20.149 14.95,35.75 35.75,35.75 21.45,0 35.1,-15.601 35.1,-35.75"
         style="fill:#3da4b0;fill-opacity:1;fill-rule:nonzero;stroke:none"
         transform="matrix(0.13333333,0,0,-0.13333333,0,272.28)" />
      <path
         id="path35"
         d="m 4464.23,167.699 c -62.4,1.301 -133.26,-9.75 -133.26,-70.8474 0,-37.0508 24.71,-54.6133 53.96,-54.6133 40.95,0 66.95,26.0117 76.05,52.6601 1.95,5.8516 3.25,12.3516 3.25,18.2036 z m 8.45,-160.55837 -4.55,39.64847 h -1.95 C 4448.63,22.1016 4414.83,0 4369.98,0 c -63.7,0 -96.21,44.8516 -96.21,90.3516 0,76.0464 67.6,117.6484 189.16,117.0004 v 6.5 c 0,26 -7.15,72.808 -71.5,72.808 -29.26,0 -59.8,-9.109 -81.91,-23.398 l -12.99,37.687 c 26,16.91 63.7,27.949 103.35,27.949 96.2,0 119.6,-65.636 119.6,-128.699 V 82.5391 c 0,-27.2891 1.3,-53.9375 5.2,-75.39847 h -52"
         style="fill:#3da4b0;fill-opacity:1;fill-rule:nonzero;stroke:none"
         transform="matrix(0.13333333,0,0,-0.13333333,0,272.28)" />
    </g>
  </g>
</svg>
